<svg width="72" height="72" viewBox="0 0 72 72" fill="none" xmlns="http://www.w3.org/2000/svg">
<path d="M35.8283 0C35.8283 0 11.52 22.9679 11.52 43.7976C11.52 54.4599 21.4753 70.9944 35.8283 71.7922" fill="#363330"/>
<path d="M35.8282 0C35.8282 0 60.1365 22.9679 60.1365 43.7976C60.1365 54.4599 50.1812 70.9944 35.8282 71.7922" fill="#363330"/>
<path d="M32.7451 72.0001C33.1822 67.0628 33.4968 57.5735 33.5473 53.0403C33.5804 50.7924 32.9572 48.6383 31.3354 47.1291C28.9101 44.6028 28.483 41.9278 29.1063 35.3544L29.7036 29.0508C29.7513 28.5762 30.1365 28.2155 30.6011 28.2155H30.6443C31.1407 28.2155 31.5432 28.6295 31.5432 29.1388V40.5095C31.4913 41.0376 31.8592 41.5123 32.3728 41.5801C32.885 41.5123 33.2544 41.0376 33.201 40.5081V27.9759C33.2024 27.4681 33.5761 27.7134 34.0696 27.7119C34.5659 27.7119 34.9987 27.4652 34.9987 27.9759V40.5095C34.9497 41.0376 35.3161 41.5123 35.8312 41.5787C36.342 41.5123 36.7099 41.0376 36.6594 40.5095V27.9759C36.6608 27.4681 37.0316 27.774 37.5265 27.7711C38.0228 27.7711 38.4557 27.4652 38.4557 27.9759V40.5081C38.4052 41.0376 38.7716 41.5123 39.2853 41.5801C39.7975 41.5123 40.1668 41.0376 40.1134 40.5095V29.1388C40.1134 28.6281 40.5174 28.2155 41.0123 28.2155H41.0599C41.5202 28.2155 41.9083 28.5762 41.953 29.0508L42.5503 35.3544C43.1751 41.9278 42.748 44.6028 40.3212 47.1291C38.6995 48.6383 38.2219 50.7924 38.2551 53.0403C38.3215 58.9586 39.1655 65.2377 39.4353 71.8385" fill="white"/>
<path opacity="0.5" d="M32.7451 72.0001C33.1822 67.0628 33.4968 57.5735 33.5473 53.0403C33.5804 50.7924 32.9572 48.6383 31.3354 47.1291C28.9101 44.6028 28.483 41.9278 29.1063 35.3544L29.7036 29.0508C29.7513 28.5762 30.1365 28.2155 30.6011 28.2155H30.6443C31.1407 28.2155 31.5432 28.6295 31.5432 29.1388V40.5095C31.4913 41.0376 31.8592 41.5123 32.3728 41.5801C32.885 41.5123 33.2544 41.0376 33.201 40.5081V27.9759C33.2024 27.4681 33.5761 27.7134 34.0696 27.7119C34.5659 27.7119 34.9987 27.4652 34.9987 27.9759V40.5095C34.9497 41.0376 35.3161 41.5123 35.8312 41.5787C36.342 41.5123 36.7099 41.0376 36.6594 40.5095V27.9759C36.6608 27.4681 37.0316 27.774 37.5265 27.7711C38.0228 27.7711 38.4557 27.4652 38.4557 27.9759V40.5081C38.4052 41.0376 38.7716 41.5123 39.2853 41.5801C39.7975 41.5123 40.1668 41.0376 40.1134 40.5095V29.1388C40.1134 28.6281 40.5174 28.2155 41.0123 28.2155H41.0599C41.5202 28.2155 41.9083 28.5762 41.953 29.0508L42.5503 35.3544C43.1751 41.9278 42.748 44.6028 40.3212 47.1291C38.6995 48.6383 38.2219 50.7924 38.2551 53.0403C38.3215 58.9586 39.1655 65.2377 39.4353 71.8385" fill="#FFEAE0"/>
<path d="M30.627 29.7604C30.1754 29.7604 29.7021 29.5901 29.7021 29.2684C29.7021 26.7045 32.0958 25.1607 34.4158 23.9589C32.0958 22.7585 29.8118 21.3056 29.8118 18.7417C29.8118 16.1779 32.0958 14.725 34.4158 13.5217C32.0958 12.3184 29.8118 10.8684 29.8118 8.30164C29.8118 7.9799 30.1754 7.71875 30.627 7.71875C31.0786 7.71875 31.4422 7.9799 31.4422 8.30164V8.31463C31.4422 8.77632 31.5374 9.18896 31.7105 9.56986H39.9258C40.0961 9.19185 40.1913 8.77776 40.1942 8.31895C40.1942 8.31174 40.1913 8.30597 40.1913 8.30164C40.1913 7.9799 40.5578 7.71875 41.0094 7.71875C41.461 7.71875 41.8245 7.9799 41.8245 8.30164C41.8245 10.8684 39.5406 12.3184 37.2177 13.5217C39.5377 14.7221 41.8245 16.175 41.8245 18.7417C41.8245 21.3085 39.5406 22.7585 37.2177 23.9589C39.5276 25.1506 41.65 26.5141 41.9587 29.1155V29.3506L41.9097 29.456C41.888 29.7647 41.4465 29.7301 41.0108 29.7301C40.5751 29.7301 40.2173 29.4848 40.1956 29.1761C40.1956 29.1674 40.1581 29.1573 40.1581 29.1515C40.1581 29.1472 40.0946 29.14 40.1134 29.127C40.1076 28.7201 40.1134 28.3623 39.9749 28.0175H31.6644C31.5215 28.3681 31.546 28.8356 31.5432 29.1818L30.627 29.7604ZM38.4426 11.4152C38.825 11.1324 39.1597 10.828 39.4353 10.4976H32.2242C32.4997 10.828 32.8345 11.1324 33.2168 11.4152H38.4441H38.4426ZM35.8297 12.9417C36.3044 12.7007 36.7647 12.4627 37.2047 12.2102H34.4562C34.8948 12.4627 35.3594 12.7007 35.8312 12.9417H35.8297ZM34.6798 14.9659H36.984C36.6117 14.7611 36.225 14.5605 35.834 14.3628C35.4358 14.5605 35.0506 14.7582 34.6812 14.9659H34.6798ZM38.2724 15.7624H33.3871C33.0264 16.0163 32.7046 16.2818 32.4334 16.5718H39.2304C38.9519 16.2818 38.6302 16.0134 38.2724 15.7624ZM39.8234 17.3711H31.8346C31.6701 17.6683 31.5533 17.9915 31.4927 18.3378H40.161C40.1004 17.9886 39.9879 17.6669 39.8234 17.3711ZM40.1956 19.1342H31.4609C31.4898 19.4891 31.5778 19.8224 31.7163 20.1283H39.9446C40.0802 19.8224 40.1653 19.4891 40.1942 19.1342H40.1956ZM38.4268 21.8683C38.8221 21.5754 39.1655 21.2652 39.4468 20.9232H32.2141C32.4925 21.2652 32.8402 21.5754 33.2312 21.8683H38.4268ZM35.8297 23.3803C36.2943 23.1437 36.7531 22.91 37.1816 22.6647H34.4764C34.9092 22.91 35.3637 23.1437 35.8283 23.3803H35.8297ZM34.5442 25.4782H37.1196C36.7084 25.2459 36.2755 25.0237 35.834 24.7986C35.3882 25.0237 34.9554 25.2488 34.5442 25.4782ZM33.2803 26.276C32.8316 26.605 32.4435 26.957 32.1362 27.3509H39.5204C39.2174 26.957 38.8279 26.605 38.3763 26.276H33.2788H33.2803Z" fill="white"/>
<path opacity="0.5" d="M30.627 29.7604C30.1754 29.7604 29.7021 29.5901 29.7021 29.2684C29.7021 26.7045 32.0958 25.1607 34.4158 23.9589C32.0958 22.7585 29.8118 21.3056 29.8118 18.7417C29.8118 16.1779 32.0958 14.725 34.4158 13.5217C32.0958 12.3184 29.8118 10.8684 29.8118 8.30164C29.8118 7.9799 30.1754 7.71875 30.627 7.71875C31.0786 7.71875 31.4422 7.9799 31.4422 8.30164V8.31463C31.4422 8.77632 31.5374 9.18896 31.7105 9.56986H39.9258C40.0961 9.19185 40.1913 8.77776 40.1942 8.31895C40.1942 8.31174 40.1913 8.30597 40.1913 8.30164C40.1913 7.9799 40.5578 7.71875 41.0094 7.71875C41.461 7.71875 41.8245 7.9799 41.8245 8.30164C41.8245 10.8684 39.5406 12.3184 37.2177 13.5217C39.5377 14.7221 41.8245 16.175 41.8245 18.7417C41.8245 21.3085 39.5406 22.7585 37.2177 23.9589C39.5276 25.1506 41.65 26.5141 41.9587 29.1155V29.3506L41.9097 29.456C41.888 29.7647 41.4465 29.7301 41.0108 29.7301C40.5751 29.7301 40.2173 29.4848 40.1956 29.1761C40.1956 29.1674 40.1581 29.1573 40.1581 29.1515C40.1581 29.1472 40.0946 29.14 40.1134 29.127C40.1076 28.7201 40.1134 28.3623 39.9749 28.0175H31.6644C31.5215 28.3681 31.546 28.8356 31.5432 29.1818L30.627 29.7604ZM38.4426 11.4152C38.825 11.1324 39.1597 10.828 39.4353 10.4976H32.2242C32.4997 10.828 32.8345 11.1324 33.2168 11.4152H38.4441H38.4426ZM35.8297 12.9417C36.3044 12.7007 36.7647 12.4627 37.2047 12.2102H34.4562C34.8948 12.4627 35.3594 12.7007 35.8312 12.9417H35.8297ZM34.6798 14.9659H36.984C36.6117 14.7611 36.225 14.5605 35.834 14.3628C35.4358 14.5605 35.0506 14.7582 34.6812 14.9659H34.6798ZM38.2724 15.7624H33.3871C33.0264 16.0163 32.7046 16.2818 32.4334 16.5718H39.2304C38.9519 16.2818 38.6302 16.0134 38.2724 15.7624ZM39.8234 17.3711H31.8346C31.6701 17.6683 31.5533 17.9915 31.4927 18.3378H40.161C40.1004 17.9886 39.9879 17.6669 39.8234 17.3711ZM40.1956 19.1342H31.4609C31.4898 19.4891 31.5778 19.8224 31.7163 20.1283H39.9446C40.0802 19.8224 40.1653 19.4891 40.1942 19.1342H40.1956ZM38.4268 21.8683C38.8221 21.5754 39.1655 21.2652 39.4468 20.9232H32.2141C32.4925 21.2652 32.8402 21.5754 33.2312 21.8683H38.4268ZM35.8297 23.3803C36.2943 23.1437 36.7531 22.91 37.1816 22.6647H34.4764C34.9092 22.91 35.3637 23.1437 35.8283 23.3803H35.8297ZM34.5442 25.4782H37.1196C36.7084 25.2459 36.2755 25.0237 35.834 24.7986C35.3882 25.0237 34.9554 25.2488 34.5442 25.4782ZM33.2803 26.276C32.8316 26.605 32.4435 26.957 32.1362 27.3509H39.5204C39.2174 26.957 38.8279 26.605 38.3763 26.276H33.2788H33.2803Z" fill="#FFEAE0"/>
</svg>
