<svg width="72" height="72" viewBox="0 0 72 72" fill="none" xmlns="http://www.w3.org/2000/svg">
<path d="M37.2486 4.07031H34.7441V68.0049H37.2486V4.07031Z" fill="#3D3935"/>
<path d="M58.5217 5.31902H12.5576C12.2255 5.31902 11.907 5.18729 11.6722 4.95281C11.4374 4.71833 11.3054 4.4003 11.3054 4.06869C11.3054 3.73708 11.4374 3.41906 11.6722 3.18457C11.907 2.95009 12.2255 2.81836 12.5576 2.81836H58.5217C58.8538 2.81836 59.1723 2.95009 59.4071 3.18457C59.642 3.41906 59.7739 3.73708 59.7739 4.06869C59.7739 4.4003 59.642 4.71833 59.4071 4.95281C59.1723 5.18729 58.8538 5.31902 58.5217 5.31902Z" fill="#3D3935"/>
<path d="M35.9963 6.28719C37.2322 6.28719 38.2341 5.28681 38.2341 4.05278C38.2341 2.81874 37.2322 1.81836 35.9963 1.81836C34.7604 1.81836 33.7585 2.81874 33.7585 4.05278C33.7585 5.28681 34.7604 6.28719 35.9963 6.28719Z" fill="#3D3935"/>
<path d="M35.9963 7.53885C35.3057 7.53885 34.6307 7.33439 34.0565 6.95131C33.4823 6.56824 33.0348 6.02377 32.7705 5.38675C32.5063 4.74972 32.4371 4.04876 32.5719 3.3725C32.7066 2.69624 33.0391 2.07505 33.5274 1.5875C34.0157 1.09994 34.6378 0.767911 35.3151 0.633395C35.9924 0.498878 36.6944 0.567917 37.3324 0.831781C37.9704 1.09564 38.5157 1.54248 38.8993 2.11579C39.283 2.68909 39.4878 3.36312 39.4878 4.05263C39.487 4.97699 39.1189 5.86327 38.4643 6.5169C37.8096 7.17052 36.922 7.53807 35.9963 7.53885ZM35.9963 3.06854C35.801 3.06854 35.6101 3.12638 35.4477 3.23474C35.2854 3.3431 35.1589 3.49711 35.0842 3.67728C35.0095 3.85746 34.9901 4.05569 35.0283 4.24691C35.0665 4.43813 35.1606 4.61374 35.2988 4.75151C35.437 4.88929 35.613 4.98304 35.8046 5.0209C35.9962 5.05876 36.1947 5.03903 36.375 4.96421C36.5553 4.88939 36.7094 4.76284 36.8177 4.60057C36.926 4.43831 36.9836 4.24762 36.9833 4.05263C36.9829 3.7915 36.8788 3.5412 36.6937 3.35669C36.5086 3.17218 36.2578 3.06854 35.9963 3.06854Z" fill="#3D3935"/>
<path d="M16.466 50.725C12.1554 50.725 8.0879 49.5968 5.0089 47.5477C1.77521 45.3957 0 42.4817 0 39.3441C0.00038989 39.0126 0.132446 38.6948 0.367199 38.4604C0.601952 38.226 0.920234 38.0941 1.25223 38.0938H31.6842C32.0164 38.0938 32.3349 38.2255 32.5697 38.46C32.8045 38.6944 32.9365 39.0125 32.9365 39.3441C32.9365 42.4817 31.1568 45.3957 27.9276 47.5477C24.8441 49.5953 20.7752 50.725 16.466 50.725ZM2.63999 40.5944C3.05101 42.4067 4.34891 44.1027 6.39813 45.4678C9.07053 47.2462 12.6445 48.2244 16.466 48.2244C20.2875 48.2244 23.8615 47.2462 26.5324 45.4678C28.5817 44.1027 29.881 42.4067 30.2921 40.5944H2.63999Z" fill="#3D3935"/>
<path d="M26.612 40.4961H6.32003C6.1258 40.4961 5.93424 40.4509 5.76051 40.3642C5.58677 40.2774 5.43562 40.1515 5.31901 39.9964C5.2024 39.8413 5.12353 39.6613 5.08862 39.4705C5.05372 39.2797 5.06374 39.0834 5.1179 38.8972L15.2639 4.04379C15.3397 3.78408 15.4979 3.55594 15.7147 3.39362C15.9314 3.2313 16.1951 3.14355 16.466 3.14355C16.7369 3.14355 17.0006 3.2313 17.2173 3.39362C17.4341 3.55594 17.5923 3.78408 17.6681 4.04379L27.8141 38.8972C27.8683 39.0834 27.8783 39.2797 27.8434 39.4705C27.8085 39.6613 27.7296 39.8413 27.613 39.9964C27.4964 40.1515 27.3452 40.2774 27.1715 40.3642C26.9978 40.4509 26.8062 40.4961 26.612 40.4961ZM7.9877 37.9955H24.9472L16.4689 8.87008L7.9877 37.9955Z" fill="#3D3935"/>
<path d="M65.674 40.4961H45.382C45.1878 40.4961 44.9963 40.4509 44.8225 40.3642C44.6488 40.2774 44.4976 40.1515 44.381 39.9964C44.2644 39.8413 44.1855 39.6613 44.1506 39.4705C44.1157 39.2797 44.1258 39.0834 44.1799 38.8972L54.3259 4.04379C54.4018 3.78408 54.5599 3.55594 54.7767 3.39362C54.9934 3.2313 55.2571 3.14355 55.528 3.14355C55.799 3.14355 56.0626 3.2313 56.2794 3.39362C56.4961 3.55594 56.6543 3.78408 56.7302 4.04379L66.8761 38.8972C66.9303 39.0834 66.9403 39.2797 66.9054 39.4705C66.8705 39.6613 66.7916 39.8413 66.675 39.9964C66.5584 40.1515 66.4073 40.2774 66.2335 40.3642C66.0598 40.4509 65.8682 40.4961 65.674 40.4961ZM47.0453 37.9955H64.0019L55.5236 8.87008L47.0453 37.9955Z" fill="#3D3935"/>
<path d="M55.5281 50.725C51.219 50.725 47.15 49.5968 44.0725 47.5477C40.8388 45.3957 39.0636 42.4817 39.0636 39.3441C39.0636 39.0125 39.1955 38.6944 39.4304 38.46C39.6652 38.2255 39.9837 38.0938 40.3158 38.0938H70.7478C71.0798 38.0941 71.3981 38.226 71.6329 38.4604C71.8676 38.6948 71.9997 39.0126 72.0001 39.3441C72.0001 42.4817 70.2189 45.3957 66.9912 47.5477C63.9063 49.5953 59.8387 50.725 55.5281 50.725ZM41.7021 40.5944C42.1131 42.4067 43.4125 44.1027 45.4617 45.4678C48.1326 47.2462 51.7081 48.2244 55.5281 48.2244C59.3482 48.2244 62.9236 47.2462 65.596 45.4678C67.6453 44.1027 68.9431 42.4067 69.3542 40.5944H41.7021Z" fill="#3D3935"/>
<path d="M51.216 72.0004H20.7766C20.4446 72 20.1264 71.8682 19.8916 71.6338C19.6569 71.3994 19.5248 71.0816 19.5244 70.7501C19.5244 69.2188 21.1656 68.27 25.0121 67.5742C27.9585 67.0418 31.8581 66.749 35.9963 66.749C40.1346 66.749 44.0356 67.0432 46.9806 67.5742C50.8271 68.27 52.4683 69.2188 52.4683 70.7501C52.4679 71.0816 52.3358 71.3994 52.101 71.6338C51.8663 71.8682 51.548 72 51.216 72.0004ZM29.6306 69.4998H42.3621C40.5485 69.3527 38.4256 69.2497 35.9963 69.2497C33.567 69.2497 31.4441 69.3468 29.6306 69.4998Z" fill="#3D3935"/>
</svg>
