<svg xmlns="http://www.w3.org/2000/svg" xmlns:xlink="http://www.w3.org/1999/xlink" width="23" height="23" viewBox="0 0 23 23">
  <defs>
    <clipPath id="clip-path">
      <rect id="Rectangle_44" data-name="Rectangle 44" width="23" height="23" fill="none"/>
    </clipPath>
  </defs>
  <g id="Group_71" data-name="Group 71" transform="translate(-768 -204)">
    <g id="Group_70" data-name="Group 70" transform="translate(768 204)">
      <g id="Group_69" data-name="Group 69" clip-path="url(#clip-path)">
        <path id="Path_101" data-name="Path 101" d="M787.295,205.025A2.03,2.03,0,0,0,785.524,204h-5.951a2.024,2.024,0,0,0-2.022,2.022v2.7a2.024,2.024,0,0,0,2.022,2.022h4.043a.675.675,0,0,1,.674.674v5.294a12.893,12.893,0,0,0-5.96-.2A6.082,6.082,0,1,0,774.137,227a35.271,35.271,0,0,0,16.519-4.159.674.674,0,0,0,.373-.6v-2.923a29.193,29.193,0,0,0-3.734-14.291Zm2.386,16.8a33.773,33.773,0,0,1-15.544,3.83,4.736,4.736,0,0,1-3.725-1.816,4.791,4.791,0,0,1-.9-4.094,4.764,4.764,0,0,1,7.217-2.8,12.575,12.575,0,0,0-1.543.647.674.674,0,0,0,.6,1.205,11.485,11.485,0,0,1,10.224,0,.674.674,0,0,0,.6-1.205q-.479-.24-.975-.437v-5.744a2.024,2.024,0,0,0-2.022-2.022h-.674v-2.022a.674.674,0,0,0-.674-.674h-1.348a.674.674,0,0,0,0,1.348h.674v1.348h-2.022a.674.674,0,0,1-.674-.674v-2.7a.675.675,0,0,1,.674-.674h5.951a.68.68,0,0,1,.6.338,27.839,27.839,0,0,1,3.561,13.63Zm0,0" transform="translate(-768.029 -204)"/>
      </g>
    </g>
  </g>
</svg>
