<svg xmlns="http://www.w3.org/2000/svg" width="29.2" height="19.384" viewBox="0 0 29.2 19.384">
  <g id="Group_118" data-name="Group 118" transform="translate(0 -86.059)">
    <path id="Path_164" data-name="Path 164" d="M24.334,297.652a2.879,2.879,0,0,1-1.941-.7,4.737,4.737,0,0,0-5.851,0,3.042,3.042,0,0,1-3.883,0,4.571,4.571,0,0,0-2.925-1.011,4.572,4.572,0,0,0-2.926,1.011,2.879,2.879,0,0,1-1.941.7,2.879,2.879,0,0,1-1.941-.7A4.572,4.572,0,0,0,0,295.941v1.711a2.88,2.88,0,0,1,1.941.7,4.571,4.571,0,0,0,2.926,1.011,4.572,4.572,0,0,0,2.926-1.011,2.88,2.88,0,0,1,1.941-.7,2.879,2.879,0,0,1,1.941.7,4.737,4.737,0,0,0,5.851,0,3.042,3.042,0,0,1,3.882,0,4.737,4.737,0,0,0,5.851,0,2.879,2.879,0,0,1,1.941-.7v-1.711a4.571,4.571,0,0,0-2.925,1.011A2.879,2.879,0,0,1,24.334,297.652Z" transform="translate(0 -197.912)"/>
    <path id="Path_165" data-name="Path 165" d="M99.937,365.941a4.571,4.571,0,0,0-2.925,1.011,3.042,3.042,0,0,1-3.883,0,4.738,4.738,0,0,0-5.851,0,2.879,2.879,0,0,1-1.941.7v1.711a4.572,4.572,0,0,0,2.926-1.011,3.043,3.043,0,0,1,3.883,0,4.737,4.737,0,0,0,5.851,0,3.042,3.042,0,0,1,3.882,0,4.571,4.571,0,0,0,2.925,1.011v-1.711a2.879,2.879,0,0,1-1.941-.7A4.572,4.572,0,0,0,99.937,365.941Z" transform="translate(-80.47 -263.92)"/>
    <path id="Path_166" data-name="Path 166" d="M25.562,94.043A4.27,4.27,0,0,1,21.6,91.458,8.84,8.84,0,0,0,7.332,88.529l-.514.495L7.9,90.649l.658-.288a3.673,3.673,0,0,1,1.55-.309,3.52,3.52,0,0,1,.638.07,1.946,1.946,0,0,1,1.24,3.046,2.055,2.055,0,0,1-1.68.876H0v1.711H10.3a3.768,3.768,0,0,0,3.08-1.6,3.657,3.657,0,0,0-2.3-5.7c-.162-.033-.326-.058-.491-.076a7.137,7.137,0,0,1,9.435,3.755,5.978,5.978,0,0,0,5.533,3.63H29.2V94.043Z"/>
  </g>
</svg>
