<svg width="72" height="72" viewBox="0 0 72 72" fill="none" xmlns="http://www.w3.org/2000/svg">
<path d="M41.9968 3.01219C44.0453 3.01219 44.6802 3.57642 45.6574 5.3999L51.0374 15.3725C51.1213 15.5405 51.2393 15.6893 51.3838 15.8093C51.5284 15.9294 51.6964 16.018 51.877 16.0695C52.0577 16.1211 52.2471 16.1344 52.4333 16.1088C52.6194 16.0831 52.7981 16.019 52.9581 15.9205L53.1521 15.8044L51.2314 26.7967L41.3854 23.0778L41.5809 22.9558C41.9101 22.7485 42.1449 22.4204 42.2348 22.0419C42.3334 21.657 42.2841 21.2491 42.0967 20.8987L32.4521 3.01219H41.9968ZM17.1952 22.8956L25.7186 28.1735C26.1735 28.4594 26.6994 28.6121 27.2366 28.6143C27.5059 28.6127 27.7738 28.5751 28.0331 28.5027C28.428 28.3859 28.7954 28.1908 29.1132 27.929C29.4311 27.6672 29.693 27.3441 29.8833 26.9789L36.0054 15.6311L38.9563 21.103L37.328 22.108C37.0904 22.2613 36.8996 22.477 36.7764 22.7315C36.6533 22.986 36.6026 23.2695 36.63 23.5509C36.6502 23.8311 36.7485 24.1 36.9136 24.3272C37.0788 24.5544 37.3043 24.7309 37.5646 24.8366L51.8471 30.2203C52.0372 30.2932 52.2417 30.3207 52.4443 30.3005C52.6469 30.2804 52.842 30.2132 53.014 30.1043C53.1938 29.9907 53.3476 29.8403 53.4651 29.663C53.5826 29.4857 53.6613 29.2856 53.6958 29.0757L56.4821 13.1376C56.5332 12.8588 56.5072 12.5713 56.407 12.3062C56.3068 12.041 56.1361 11.8082 55.9134 11.6329C55.6982 11.4672 55.4376 11.3711 55.1663 11.3575C54.895 11.3438 54.6261 11.4133 54.3953 11.5565L52.7685 12.563L48.0954 3.89381C46.7684 1.42675 45.34 0 41.9968 0H30.0141C26.6664 0 25.2425 1.42675 23.9155 3.89087L23.3835 4.87681C23.1959 5.22164 23.1445 5.62429 23.2395 6.00518C23.3344 6.38607 23.5688 6.71748 23.8963 6.93391C24.1064 7.06589 24.3493 7.13616 24.5973 7.13668C24.8502 7.13328 25.0974 7.06102 25.3123 6.9277C25.5272 6.79437 25.7017 6.60501 25.817 6.37996L26.3476 5.3999C27.1925 3.83503 27.776 3.19586 29.222 3.04892L34.3786 12.6203L27.4527 25.4714C27.4191 25.5263 27.3669 25.5675 27.3057 25.5874C27.2764 25.5954 27.2458 25.5973 27.2157 25.593C27.1856 25.5887 27.1567 25.5783 27.1308 25.5625L18.5928 20.2845C18.5666 20.2681 18.5438 20.2467 18.5259 20.2214C18.508 20.1962 18.4953 20.1677 18.4884 20.1376C18.4789 20.1065 18.4757 20.0739 18.479 20.0416C18.4823 20.0093 18.492 19.978 18.5075 19.9495L19.4892 18.1319C19.6774 17.7868 19.7287 17.3835 19.6328 17.0022C19.5369 16.621 19.301 16.2899 18.9719 16.0748C18.812 15.976 18.6334 15.9116 18.4473 15.8855C18.2612 15.8594 18.0718 15.8722 17.8909 15.9232C17.71 15.9742 17.5418 16.0622 17.3967 16.1816C17.2516 16.301 17.133 16.4493 17.0483 16.617L16.071 18.4346C15.6619 19.1939 15.5538 20.0795 15.7683 20.9149C15.9653 21.7369 16.4779 22.4484 17.1952 22.8956Z" fill="#363330"/>
<path d="M29.1941 65.2146C29.1953 65.2794 29.1713 65.3421 29.1272 65.3895C29.083 65.437 29.0222 65.4654 28.9575 65.4688H13.2759C11.5918 65.4688 10.7777 65.2455 9.94153 63.9803L15.0967 54.4104H28.9516C29.0163 54.4138 29.0771 54.4422 29.1213 54.4897C29.1654 54.5371 29.1894 54.5998 29.1882 54.6646L29.1941 65.2146ZM3.62395 47.5573L8.99809 37.5847C9.18582 37.2401 9.23744 36.8376 9.14275 36.4567C9.04807 36.0758 8.81396 35.7443 8.48668 35.5276L8.28535 35.4116L18.1313 31.6985L20.052 42.6864L19.8536 42.5688C19.6934 42.4708 19.5146 42.4071 19.3285 42.3818C19.1424 42.3565 18.9531 42.3701 18.7726 42.4218C18.592 42.4735 18.4241 42.562 18.2796 42.6819C18.1351 42.8019 18.017 42.9505 17.9329 43.1184L8.29564 61.0034L3.52843 52.1491C2.49975 50.2492 2.6467 49.3764 3.62689 47.5573H3.62395ZM28.9516 51.3982H16.7191L19.6743 45.9219L21.3011 46.9269C21.5307 47.0704 21.7985 47.1406 22.069 47.128C22.3394 47.1154 22.5996 47.0206 22.8148 46.8564C23.0388 46.6812 23.2103 46.4477 23.3106 46.1816C23.4109 45.9154 23.4361 45.6269 23.3835 45.3474L20.5913 29.4063C20.558 29.1966 20.4803 28.9963 20.3635 28.819C20.2467 28.6416 20.0934 28.4912 19.9139 28.3777C19.7399 28.2696 19.5435 28.2028 19.3397 28.1824C19.1359 28.1621 18.9302 28.1887 18.7382 28.2602L4.46747 33.6483C4.20587 33.7526 3.97899 33.9286 3.81289 34.156C3.64679 34.3835 3.54819 34.6531 3.52843 34.934C3.50225 35.2153 3.55344 35.4984 3.67646 35.7527C3.79948 36.007 3.98967 36.2228 4.22647 36.3769L5.85325 37.382L1.1801 46.0512C-0.145436 48.5168 -0.5863 50.546 1.09045 53.6581L7.07592 64.7679C8.7512 67.8727 10.619 68.4825 13.2759 68.4825H28.9516C30.6298 68.4825 32.0009 67.0131 32.0009 65.2146V54.6602C32.0009 52.8558 30.6298 51.3938 28.9516 51.3938" fill="#363330"/>
<path d="M62.494 63.2637C61.4653 65.1636 60.6968 65.4678 58.7334 65.4678H47.9793C47.2019 65.4678 46.5715 66.1437 46.5715 66.9768V67.2207L38.6506 59.94L46.5774 52.6608V52.9047C46.5774 53.7379 47.2078 54.4079 47.9852 54.4079H67.2656L62.494 63.2637ZM51.6032 38.5432C51.5738 38.4844 51.5669 38.4169 51.5836 38.3534C51.6004 38.2898 51.6397 38.2346 51.6943 38.1979L60.2265 32.9141C60.254 32.8989 60.2843 32.8894 60.3156 32.8861C60.3468 32.8828 60.3784 32.8858 60.4085 32.8948C60.4386 32.9038 60.4666 32.9187 60.4909 32.9387C60.5151 32.9587 60.5352 32.9833 60.5498 33.0111L68.3854 47.5577C69.2304 49.1167 69.4523 49.9807 68.8498 51.3928H58.5336L51.6032 38.5432ZM70.8234 46.0516L62.9834 31.505C62.1428 29.946 60.275 29.4126 58.8187 30.3118L50.285 35.5898C48.8287 36.489 48.3305 38.4903 49.1711 40.0493L55.2888 51.3928H49.3783V49.3842C49.3825 49.1032 49.3084 48.8265 49.1644 48.5852C49.0204 48.3439 48.8121 48.1474 48.5627 48.0176C48.3188 47.8982 48.0443 47.8556 47.7756 47.8955C47.5069 47.9353 47.2566 48.0558 47.0579 48.241L35.5646 58.7983C35.4103 58.9459 35.2875 59.1233 35.2036 59.3196C35.1197 59.516 35.0764 59.7273 35.0764 59.9408C35.0764 60.1543 35.1197 60.3656 35.2036 60.5619C35.2875 60.7583 35.4103 60.9356 35.5646 61.0832L47.0623 71.6347C47.2597 71.8219 47.5098 71.9442 47.7788 71.9852C48.0478 72.0262 48.3229 71.9838 48.5671 71.8639C48.8166 71.7328 49.0249 71.5352 49.1688 71.2929C49.3128 71.0507 49.3868 70.7733 49.3827 70.4915V68.48H58.732C61.3875 68.48 63.2567 67.8761 64.9305 64.7669L70.9175 53.6571C72.5869 50.5523 72.146 48.5143 70.8175 46.0516" fill="#363330"/>
<path d="M21.4363 13.0049C22.2137 13.0049 22.8397 12.329 22.8397 11.5017C22.8397 10.6745 22.2137 9.99121 21.4363 9.99121C20.6589 9.99121 20.027 10.6671 20.027 11.5002C20.027 12.3334 20.6589 13.0034 21.4363 13.0034" fill="#363330"/>
</svg>
