<svg xmlns="http://www.w3.org/2000/svg" xmlns:xlink="http://www.w3.org/1999/xlink" width="23" height="23" viewBox="0 0 23 23">
  <defs>
    <clipPath id="clip-path">
      <rect id="Rectangle_52" data-name="Rectangle 52" width="23" height="23" transform="translate(0 -0.219)" fill="none"/>
    </clipPath>
  </defs>
  <g id="Group_113" data-name="Group 113" transform="translate(-704 -139.888)">
    <g id="Group_112" data-name="Group 112" transform="translate(704 140.107)">
      <g id="Group_111" data-name="Group 111" clip-path="url(#clip-path)">
        <path id="Path_153" data-name="Path 153" d="M726.859,146.355l-.2-1.72a.672.672,0,0,0-.591-.591l-1.191-.139-.138-1.191a.673.673,0,0,0-.591-.591l-1.191-.139-.138-1.191a.673.673,0,0,0-.591-.591l-1.72-.2a.673.673,0,0,0-.554.193L704.2,155.953a.674.674,0,0,0-.193.554l.2,1.72a.673.673,0,0,0,.591.591l1.191.139.139,1.191a.673.673,0,0,0,.591.591l1.191.139.139,1.191a.673.673,0,0,0,.591.591l1.72.2a.681.681,0,0,0,.078,0,.672.672,0,0,0,.476-.2l15.757-15.756a.674.674,0,0,0,.193-.554Zm-16.671,15.128-.868-.1-.139-1.191a.673.673,0,0,0-.591-.591l-1.191-.139-.139-1.191a.672.672,0,0,0-.591-.591l-1.191-.139-.1-.867,1.3-1.3,4.809,4.809Zm2.249-2.249-4.809-4.808,10.8-10.8,4.809,4.809Zm11.75-11.75-4.808-4.808,1.3-1.3.868.1.139,1.191a.673.673,0,0,0,.591.59l1.191.139.139,1.191a.672.672,0,0,0,.59.591l1.191.139.1.868Zm0,0" transform="translate(-704.001 -140.081)"/>
      </g>
    </g>
    <path id="Path_154" data-name="Path 154" d="M876.586,351.217a.673.673,0,0,0,.16.7l.8.8-2.668.313a.673.673,0,1,0,.157,1.336l4.048-.475a.673.673,0,0,0,.4-1.144l-.8-.8,2.668-.313a.673.673,0,0,0-.157-1.337l-4.048.475a.673.673,0,0,0-.557.448Zm0,0" transform="translate(-162.683 -200.874)"/>
  </g>
</svg>
