<svg xmlns="http://www.w3.org/2000/svg" width="15.453" height="3.863" viewBox="0 0 15.453 3.863">
  <g id="Group_49" data-name="Group 49" transform="translate(-55 -36.078)">
    <g id="Group_88" data-name="Group 88" transform="translate(-649 -295.922)">
      <path id="Path_126" data-name="Path 126" d="M899.863,333.932A1.932,1.932,0,1,1,897.932,332a1.932,1.932,0,0,1,1.932,1.932Zm0,0" transform="translate(-186.205)"/>
      <path id="Path_127" data-name="Path 127" d="M707.863,333.932A1.932,1.932,0,1,1,705.932,332a1.932,1.932,0,0,1,1.932,1.932Zm0,0"/>
      <path id="Path_128" data-name="Path 128" d="M1091.863,333.932a1.932,1.932,0,1,1-1.932-1.932,1.932,1.932,0,0,1,1.932,1.932Zm0,0" transform="translate(-372.41)"/>
    </g>
  </g>
</svg>
