<svg xmlns="http://www.w3.org/2000/svg" width="22.023" height="22.109" viewBox="0 0 22.023 22.109">
  <g id="Group_80" data-name="Group 80" transform="translate(-768 -204)">
    <path id="Path_110" data-name="Path 110" d="M789.376,207.791H776.829a4.438,4.438,0,0,0-8.829.648v13.232a4.443,4.443,0,0,0,4.438,4.438h16.937a.648.648,0,0,0,.648-.648V208.438a.648.648,0,0,0-.648-.648Zm-20.08.648a3.143,3.143,0,0,1,6.286,0v10.1a4.431,4.431,0,0,0-6.286,0Zm0,13.232a3.143,3.143,0,1,1,3.143,3.143,3.146,3.146,0,0,1-3.143-3.143Zm19.433,3.143H775.569a4.424,4.424,0,0,0,1.308-3.143V209.086h11.851Zm0,0" transform="translate(0 0)"/>
    <path id="Path_111" data-name="Path 111" d="M813.377,477.141a2.063,2.063,0,1,0-2.063,2.063,2.066,2.066,0,0,0,2.063-2.063Zm-2.831,0a.768.768,0,1,1,.768.768.769.769,0,0,1-.768-.768Zm0,0" transform="translate(-38.875 -255.471)"/>
  </g>
</svg>
