<svg xmlns="http://www.w3.org/2000/svg" width="20.348" height="20.348" viewBox="0 0 20.348 20.348">
  <g id="Group_129" data-name="Group 129" transform="translate(-792 -228)">
    <g id="Group_127" data-name="Group 127" transform="translate(792 228)">
      <path id="Path_186" data-name="Path 186" d="M808.714,228H795.634A3.634,3.634,0,0,0,792,231.634v13.081a3.634,3.634,0,0,0,3.634,3.634h13.081a3.634,3.634,0,0,0,3.633-3.634V231.634A3.633,3.633,0,0,0,808.714,228Zm2.18,16.714a2.18,2.18,0,0,1-2.18,2.18H795.634a2.18,2.18,0,0,1-2.18-2.18V231.634a2.18,2.18,0,0,1,2.18-2.18h13.081a2.18,2.18,0,0,1,2.18,2.18Zm-1.613-10.3a10.717,10.717,0,0,0-3.677-2.776,8.72,8.72,0,0,0-6.868,0,10.764,10.764,0,0,0-3.633,2.8.733.733,0,0,0,.116,1.025l3.27,2.58a.684.684,0,0,0,.574.145.728.728,0,0,0,.494-.334,2.967,2.967,0,0,1,5.269-.022.727.727,0,0,0,.494.335.35.35,0,0,0,.123,0,.728.728,0,0,0,.451-.16l3.27-2.58a.717.717,0,0,0,.116-1.01Zm-3.7,2a4.491,4.491,0,0,0-2.682-1.555v-1.039a.727.727,0,1,0-1.453,0v1.039a4.491,4.491,0,0,0-2.682,1.555l-2.071-1.635a9.293,9.293,0,0,1,2.623-1.824,7.269,7.269,0,0,1,5.712,0,9.292,9.292,0,0,1,2.623,1.824Zm0,0" transform="translate(-792 -228)"/>
    </g>
    <path id="Path_187" data-name="Path 187" d="M949.36,411.849a.6.6,0,1,1-1.2-.012l.072-4.866a.6.6,0,0,1,1.2.012Z" transform="translate(-146.704 -167.574)" fill="#040505"/>
    <path id="Path_188" data-name="Path 188" d="M915.387,446.032a.6.6,0,1,1-.012,1.2l-4.866-.072a.6.6,0,1,1,.012-1.2Z" transform="translate(-110.774 -204.76)" fill="#040505"/>
  </g>
</svg>
