<svg xmlns="http://www.w3.org/2000/svg" width="25.637" height="16.018" viewBox="0 0 25.637 16.018">
  <path id="Path_179" data-name="Path 179" d="M23.738,105.094a2.513,2.513,0,0,0,.233-.905,3.143,3.143,0,0,0-1.157-2.429,11.716,11.716,0,0,0-3.9-2.432,2.833,2.833,0,0,0-.01-.784,3.013,3.013,0,0,0-2.111-2.268,9.549,9.549,0,0,0-2.939-.26c-.372,0-.732.01-1.059,0-.012,0-.022.006-.034.006s-.022-.006-.034-.006c-.329.014-.687.008-1.059,0a9.6,9.6,0,0,0-2.939.26,3.013,3.013,0,0,0-2.111,2.268,2.767,2.767,0,0,0-.011.783,11.729,11.729,0,0,0-3.9,2.432,3.146,3.146,0,0,0-1.157,2.43,2.513,2.513,0,0,0,.233.905A7.626,7.626,0,0,0,.233,107.4a3.608,3.608,0,0,0,.461,3.669,3.013,3.013,0,0,0,2.276.957,3.7,3.7,0,0,0,1.281-.231A6.7,6.7,0,0,0,6.4,110.407a4.247,4.247,0,0,0,1.108.6,2.049,2.049,0,0,0,.686.112,4.183,4.183,0,0,0,2.481-1.042c.023.026.04.056.064.082a2.309,2.309,0,0,0,.223.208c.018.014.035.026.053.039a1.8,1.8,0,0,0,.174.122l.053.029a1.731,1.731,0,0,0,.176.089l.039.015a1.963,1.963,0,0,0,.2.067l.01,0a2.6,2.6,0,0,0,.692.082l.2,0,.2,0,.207,0,.2,0a2.011,2.011,0,0,0,1.613-.654c.024-.026.041-.055.064-.082a4.181,4.181,0,0,0,2.481,1.042,2.057,2.057,0,0,0,.687-.112,4.266,4.266,0,0,0,1.107-.6,6.7,6.7,0,0,0,2.147,1.389,3.725,3.725,0,0,0,1.282.231,3.014,3.014,0,0,0,2.276-.957,3.608,3.608,0,0,0,.461-3.669A7.63,7.63,0,0,0,23.738,105.094Zm-20.04,5.2a1.673,1.673,0,0,1-1.8-.284,2.067,2.067,0,0,1-.167-2.026,5.5,5.5,0,0,1,1.011-1.548l2.027,2.356c.143.167.3.343.457.52A4.882,4.882,0,0,1,3.7,110.292Zm4.34-.794a5.594,5.594,0,0,1-2.058-1.753L3.8,105.211a2.173,2.173,0,0,1-.65-1.113,1.73,1.73,0,0,1,.674-1.192,10.113,10.113,0,0,1,3.2-2.026l2.765,7.533.087.231C9.355,109.166,8.453,109.645,8.038,109.5Zm4.96-.288-.238,0h-.014c-.093,0-.183,0-.268,0-.314,0-.408-.007-.487-.063a.627.627,0,0,1-.086-.079,3.636,3.636,0,0,1-.607-1.2L8.48,100.184A2.893,2.893,0,0,1,8.2,98.812,1.446,1.446,0,0,1,9.215,97.8a8.315,8.315,0,0,1,2.43-.184c.391.006.767.009,1.115,0,.348.014.726.01,1.116,0a8.347,8.347,0,0,1,2.43.184,1.443,1.443,0,0,1,1.018,1.011,2.9,2.9,0,0,1-.283,1.371l-2.819,7.679a3.621,3.621,0,0,1-.607,1.2C13.477,109.212,13.441,109.22,13,109.211Zm4.485.288c-.417.147-1.318-.332-1.844-.853.029-.078.061-.158.087-.231l2.765-7.533a10.113,10.113,0,0,1,3.2,2.026,1.727,1.727,0,0,1,.674,1.191,2.174,2.174,0,0,1-.65,1.113l-2.18,2.535A5.594,5.594,0,0,1,17.483,109.5Zm6.144.509a1.671,1.671,0,0,1-1.8.284,4.892,4.892,0,0,1-1.523-.983c.159-.177.313-.352.457-.52l2.026-2.356a5.49,5.49,0,0,1,1.012,1.548A2.073,2.073,0,0,1,23.627,110.008Z" transform="translate(0.058 -96.009)"/>
</svg>
