<svg xmlns="http://www.w3.org/2000/svg" xmlns:xlink="http://www.w3.org/1999/xlink" width="24" height="24" viewBox="0 0 24 24">
  <defs>
    <clipPath id="clip-path">
      <rect id="Rectangle_53" data-name="Rectangle 53" width="24" height="24" fill="none"/>
    </clipPath>
  </defs>
  <g id="Group_116" data-name="Group 116" transform="translate(-704 -140)">
    <g id="Group_115" data-name="Group 115" transform="translate(704 140)">
      <g id="Group_114" data-name="Group 114" clip-path="url(#clip-path)">
        <path id="Path_155" data-name="Path 155" d="M710.951,163.514a6.952,6.952,0,0,1-4.917-11.871l3.236-3.238a.753.753,0,0,1,1.064,1.064l-3.236,3.238a5.45,5.45,0,1,0,7.707,7.708l9.6-9.605A5.451,5.451,0,1,0,716.7,143.1l-4.27,4.27.739.739a.752.752,0,1,1-1.064,1.064l-1.271-1.272a.752.752,0,0,1,0-1.064l4.8-4.8a6.955,6.955,0,1,1,9.837,9.836l-9.605,9.606a6.936,6.936,0,0,1-4.919,2.034Zm0,0" transform="translate(-704 -140)"/>
      </g>
    </g>
    <path id="Path_156" data-name="Path 156" d="M822.686,434.476a.753.753,0,0,1-.687-.443l-2.145-4.765a.753.753,0,0,1,1-1l4.765,2.145A.752.752,0,0,1,825,431.79l-2.955-1.33,1.331,2.955a.753.753,0,0,1-.686,1.061Zm0,0" transform="translate(-110.47 -274.97)"/>
    <path id="Path_157" data-name="Path 157" d="M859.716,471.082a.752.752,0,0,1-.532-1.284l2.2-2.2a.752.752,0,0,1,1.064,1.064l-2.2,2.2a.752.752,0,0,1-.532.22Zm0,0" transform="translate(-147.847 -312.345)"/>
    <path id="Path_158" data-name="Path 158" d="M989.46,244.378a1.639,1.639,0,0,1-1.179-.465l-1.952-1.952a1.7,1.7,0,0,1-.448-1.465,2.431,2.431,0,0,1,.7-1.355l.091-.091a2.437,2.437,0,0,1,1.355-.7,1.7,1.7,0,0,1,1.466.448l.152.152a.752.752,0,1,1-1.063,1.065l-.152-.152a.258.258,0,0,0-.186-.023.944.944,0,0,0-.506.276l-.091.091a.941.941,0,0,0-.276.5.252.252,0,0,0,.023.186l1.952,1.952c.056.057.382.057.691-.253l.092-.091A.943.943,0,0,0,990.4,242a.252.252,0,0,0-.023-.187l-.185-.186a.753.753,0,1,1,1.065-1.064l.185.185a2.021,2.021,0,0,1-.254,2.82l-.091.091a2.355,2.355,0,0,1-1.64.718Zm0,0" transform="translate(-268.916 -93.813)"/>
    <path id="Path_159" data-name="Path 159" d="M889.807,335.99a.752.752,0,0,1-.532-.22L887.4,333.9l-.01-.01-.01-.01-1.56-1.56a.752.752,0,0,1,0-1.064l.973-.973a2.033,2.033,0,0,1,2.86-.293l.067.067a1.565,1.565,0,0,1,.413.746l.019,0a1.887,1.887,0,0,1,1.645.487l.081.081a2.3,2.3,0,0,1-.329,3.2l-1.21,1.21a.757.757,0,0,1-.532.22Zm-.82-2.637.821.82.677-.677c.42-.42.477-.921.33-1.068l-.081-.081a.421.421,0,0,0-.352-.064,1.352,1.352,0,0,0-.717.393.716.716,0,0,1-.087.075c-.047.055-.1.11-.15.161Zm-1.571-1.571.506.506.441-.441c.325-.325.346-.679.293-.732l-.067-.067c-.052-.053-.406-.032-.732.293Zm0,0" transform="translate(-173.26 -180.816)"/>
    <path id="Path_160" data-name="Path 160" d="M1013.446,450.286a.752.752,0,0,1-.532-.22l-1.269-1.27a.752.752,0,1,1,1.064-1.064l1.269,1.269a.753.753,0,0,1-.532,1.285Zm0,0" transform="translate(-293.305 -293.388)"/>
  </g>
</svg>
