<svg xmlns="http://www.w3.org/2000/svg" width="21.815" height="23.339" viewBox="0 0 21.815 23.339">
  <g id="Group_119" data-name="Group 119" transform="translate(-16.713)">
    <path id="Path_168" data-name="Path 168" d="M38.489,5.875A8.045,8.045,0,0,0,35.427.565L34.717,0c-.044.107-.033.1-.049.066C19.412,13.9,18.439,14.259,17.218,17.5a6.215,6.215,0,0,0,.474,5.816c4.593.345,7.2-2.672,10.251-5.665a5.629,5.629,0,0,0,2.177,5.4c.373.254.209.236.63.072a7.877,7.877,0,0,0,4.067-4.351c.836-2.09,1.6-4.242,2.343-6.323C37.924,10.3,38.716,8.169,38.489,5.875Zm-19.98,16.1C17.086,19,19.523,15.636,21.25,14.07L34.205,2.327c2.1,5.62-1.614,8.773-5.737,12.879C24.15,19.507,22.215,21.837,18.509,21.977Zm17.5-10.37c-2.17,6.085-2.736,8.627-5.425,10.08-1.67-1.422-1.454-3.986-.917-5.751C33.851,11.764,37.3,8.591,35.8,2.871,37.963,5.637,37.181,8.318,36.009,11.607Z"/>
    <path id="Path_169" data-name="Path 169" d="M183.509,241.114a2.23,2.23,0,1,0,2.23,2.23A2.233,2.233,0,0,0,183.509,241.114Zm0,3.1a.866.866,0,0,1,0-1.732A.866.866,0,0,1,183.509,244.21Z" transform="translate(-157.064 -230.123)"/>
    <path id="Path_170" data-name="Path 170" d="M262.989,166.47a2.23,2.23,0,1,0-1.99-2.217A2.232,2.232,0,0,0,262.989,166.47Zm.24-3.083a.866.866,0,0,1,0,1.732A.866.866,0,0,1,263.229,163.387Z" transform="translate(-233.15 -154.637)"/>
    <path id="Path_171" data-name="Path 171" d="M102.722,316.893a2.23,2.23,0,1,0,2.231,2.23A2.233,2.233,0,0,0,102.722,316.893Zm0,3.1a.866.866,0,0,1,0-1.732A.866.866,0,0,1,102.722,319.989Z" transform="translate(-79.96 -302.448)"/>
  </g>
</svg>
