<svg id="Group_104" data-name="Group 104" xmlns="http://www.w3.org/2000/svg" xmlns:xlink="http://www.w3.org/1999/xlink" width="25" height="25" viewBox="0 0 25 25">
  <g id="Group_102" data-name="Group 102">
    <path id="Path_148" data-name="Path 148" d="M715.986,146.687a6.687,6.687,0,1,1,10.586,5.429l.723,5.363a14.271,14.271,0,0,1-.965,7.424.743.743,0,0,1-.686.457h-15.7a5.952,5.952,0,1,1,5.434-8.516,5.722,5.722,0,0,1,2.095-.4,5.584,5.584,0,0,1,1.508.21c.26-1.45.439-2.037.865-3.909a6.7,6.7,0,0,1-3.859-6.059Zm4.405,10.523a5.933,5.933,0,0,1,1.283.975.743.743,0,1,1-1.051,1.051,4.448,4.448,0,0,0-1.183-.847,5.478,5.478,0,0,0-1.969-.458,4.391,4.391,0,0,0-2.136.572.743.743,0,0,1-1.067-.426,4.488,4.488,0,1,0-4.326,5.8h15.2a12.79,12.79,0,0,0,.684-6.2l-.646-4.792a6.688,6.688,0,0,1-3.917.336c-.379,1.682-.588,2.349-.868,3.987Zm2.281-5.322a5.2,5.2,0,1,0-5.2-5.2,5.206,5.206,0,0,0,5.2,5.2Zm0,0" transform="translate(-704.359 -140)"/>
  </g>
  <path id="Path_149" data-name="Path 149" d="M796.229,230A2.229,2.229,0,1,1,794,232.229,2.231,2.231,0,0,1,796.229,230Zm0,2.972a.743.743,0,1,0-.743-.743.744.744,0,0,0,.743.743Zm0,0" transform="translate(-777.915 -225.542)"/>
</svg>
