<svg xmlns="http://www.w3.org/2000/svg" xmlns:xlink="http://www.w3.org/1999/xlink" width="23" height="23" viewBox="0 0 23 23">
  <defs>
    <clipPath id="clip-path">
      <rect id="Rectangle_46" data-name="Rectangle 46" width="23" height="23" fill="none"/>
    </clipPath>
  </defs>
  <g id="Group_84" data-name="Group 84" transform="translate(-704 -140)">
    <g id="Group_83" data-name="Group 83" transform="translate(704 140)">
      <g id="Group_82" data-name="Group 82" clip-path="url(#clip-path)">
        <path id="Path_116" data-name="Path 116" d="M726.325,141.115a.667.667,0,0,0-.692-.484,13.679,13.679,0,0,0-4.228,1.083,11.378,11.378,0,1,0,4.784,6.029c1.236-2.648.185-6.453.136-6.628Zm-1.625,6.552a4.23,4.23,0,0,1-3.669,1.431l2.636-3.759a.668.668,0,0,0-1.093-.767l-2.634,3.756a4.226,4.226,0,0,1,.093-3.93,4.395,4.395,0,0,1,1.577-1.3.669.669,0,0,0,.106-.055,11.783,11.783,0,0,1,3.458-1.013c.3,1.424.587,4.123-.474,5.638Zm-4.624-5.177a4.652,4.652,0,0,0-1.686,5.408,8.77,8.77,0,0,0,.659,1.7l-.11.156A13.979,13.979,0,0,0,716.9,154.1l-1.634,5.967-6.7-16.061a10.064,10.064,0,0,1,11.511-1.519Zm-14.741,8.9a9.981,9.981,0,0,1,2.23-6.316l6.806,16.323a10.06,10.06,0,0,1-9.036-10.007Zm17.171,7.112a9.983,9.983,0,0,1-6.227,2.907l1.905-6.959a12.645,12.645,0,0,1,1.849-3.933l.108-.153a8.932,8.932,0,0,0,1.112.07c.227,0,.469-.009.722-.031a5.352,5.352,0,0,0,3.219-1.29,10.074,10.074,0,0,1-2.687,9.389Zm0,0" transform="translate(-704 -140)"/>
      </g>
    </g>
  </g>
</svg>
