<svg xmlns="http://www.w3.org/2000/svg" width="25.034" height="17.895" viewBox="0 0 25.034 17.895">
  <g id="Group_126" data-name="Group 126" transform="translate(-768 -259)">
    <path id="Path_181" data-name="Path 181" d="M790.833,467.6H770.2a2.2,2.2,0,0,1-2.2-2.2v-.2a2.2,2.2,0,0,1,2.2-2.2h20.633a2.2,2.2,0,0,1,2.2,2.2v.2a2.2,2.2,0,0,1-2.2,2.2ZM770.2,464.467a.734.734,0,0,0-.733.733v.2a.734.734,0,0,0,.733.733h20.633a.734.734,0,0,0,.733-.733v-.2a.734.734,0,0,0-.733-.733Zm0,0" transform="translate(0 -190.701)" fill="#222221"/>
    <path id="Path_182" data-name="Path 182" d="M907.742,260.467h-6.258a.733.733,0,0,1,0-1.467h6.258a.733.733,0,0,1,0,1.467Zm0,0" transform="translate(-124.096)" fill="#222221"/>
    <path id="Path_183" data-name="Path 183" d="M928.613,263.6h-3.129a.733.733,0,0,1-.733-.733v-3.129a.733.733,0,0,1,.733-.733h3.129a.733.733,0,0,1,.733.733v3.129a.733.733,0,0,1-.733.733Zm-2.4-1.467h1.662v-1.662h-1.662Zm0,0" transform="translate(-146.531)" fill="#222221"/>
    <path id="Path_184" data-name="Path 184" d="M813.823,318.637h-20.34a.733.733,0,0,1-.733-.733,10.9,10.9,0,1,1,21.807,0,.733.733,0,0,1-.733.733Zm-19.578-1.467h18.817a9.437,9.437,0,0,0-18.817,0Zm0,0" transform="translate(-23.136 -44.871)" fill="#222221"/>
  </g>
</svg>