<svg xmlns="http://www.w3.org/2000/svg" width="22.844" height="22.844" viewBox="0 0 22.844 22.844">
  <path id="Path_167" data-name="Path 167" d="M22.646,21.7l-7.41-7.41a6.684,6.684,0,0,0,2.061-.912,1.807,1.807,0,0,0,.738-2.127,6.267,6.267,0,0,0,2.355-.966,1.806,1.806,0,0,0,0-3.053,8.128,8.128,0,0,0-1.123-.6,3.713,3.713,0,0,0,.641-.506A5.57,5.57,0,0,0,21.24,3.365a1.806,1.806,0,0,0-2.159-2.159,5.57,5.57,0,0,0-2.757,1.331,3.713,3.713,0,0,0-.506.641,8.144,8.144,0,0,0-.6-1.121,1.806,1.806,0,0,0-3.053,0A6.267,6.267,0,0,0,11.2,4.412a1.807,1.807,0,0,0-2.127.738,6.684,6.684,0,0,0-.911,2.061L1.146.2a.672.672,0,0,0-.95.95L6.664,7.615a1.8,1.8,0,0,0-.7.64,5.57,5.57,0,0,0-1.009,2.891,6.891,6.891,0,0,0,1.626,3.765l-5.03,5.03a.672.672,0,1,0,.95.95l5.03-5.03A6.894,6.894,0,0,0,11.3,17.488a5.57,5.57,0,0,0,2.891-1.009,1.8,1.8,0,0,0,.639-.7L21.7,22.647a.672.672,0,0,0,.95-.95Zm-6.067-9.458a4.365,4.365,0,0,1-2.173.8,2.35,2.35,0,0,1-.468-.051l-1.6-1.6a4.333,4.333,0,0,1,2.065-.735,4.365,4.365,0,0,1,2.173.8.462.462,0,0,1,0,.781Zm3.309-3.484a.456.456,0,0,1-.215.391,4.365,4.365,0,0,1-2.173.8,5.368,5.368,0,0,1-2.743-1.192A5.369,5.369,0,0,1,17.5,7.563a4.365,4.365,0,0,1,2.172.8A.457.457,0,0,1,19.888,8.755ZM17.274,3.487a4.365,4.365,0,0,1,2.1-.97.483.483,0,0,1,.106-.012.463.463,0,0,1,.446.565,4.365,4.365,0,0,1-.97,2.1h0a5.369,5.369,0,0,1-2.782,1.1A5.369,5.369,0,0,1,17.274,3.487ZM13.3,2.775a.462.462,0,0,1,.781,0,4.365,4.365,0,0,1,.8,2.173A5.369,5.369,0,0,1,13.693,7.69,5.369,5.369,0,0,1,12.5,4.947,4.364,4.364,0,0,1,13.3,2.775ZM9.408,8.041a4.364,4.364,0,0,1,.8-2.172.462.462,0,0,1,.781,0,4.364,4.364,0,0,1,.8,2.173,4.334,4.334,0,0,1-.735,2.065l-1.6-1.6A2.349,2.349,0,0,1,9.408,8.041Zm-2.3.932a.462.462,0,0,1,.781,0,4.364,4.364,0,0,1,.8,2.173,5.369,5.369,0,0,1-1.192,2.743A5.369,5.369,0,0,1,6.3,11.146,4.363,4.363,0,0,1,7.1,8.973Zm6.371,6.371a4.365,4.365,0,0,1-2.173.8,5.369,5.369,0,0,1-2.743-1.192A5.369,5.369,0,0,1,11.3,13.762a4.365,4.365,0,0,1,2.173.8.462.462,0,0,1,0,.781Z" transform="translate(0.001)"/>
</svg>
