<svg xmlns="http://www.w3.org/2000/svg" width="26.376" height="26.091" viewBox="0 0 26.376 26.091">
  <g id="Group_117" data-name="Group 117" transform="translate(-802.253 -238.252)">
    <path id="Path_162" data-name="Path 162" d="M824.854,242.226a14.016,14.016,0,0,0-3.906-2.773,12.954,12.954,0,0,0-5.51-1.2,13.38,13.38,0,0,0-8.294,2.978,12.975,12.975,0,0,0-4.606,7.482,13.493,13.493,0,0,0-.284,2.726,13.11,13.11,0,0,0,2.957,8.281,13.442,13.442,0,0,0,3.413,2.986,9.4,9.4,0,0,0,4.158,1.639.627.627,0,0,0,.133-1.24,11.959,11.959,0,0,1-5.437-2.814l6.149-6.148v4.344a.627.627,0,0,0,.627.627h6.225a.634.634,0,0,0,.4-.148l2.656-2.236a.627.627,0,0,0,.223-.479v-6.225a.635.635,0,0,0-.627-.627h-4.763l5.93-5.93a11.708,11.708,0,0,1,3.073,7.969,11.91,11.91,0,0,1-9.256,11.62.627.627,0,0,0,.292,1.219,13.164,13.164,0,0,0,10.218-12.831,12.98,12.98,0,0,0-3.774-9.218Zm-21.347,9.216a12.219,12.219,0,0,1,.258-2.476,11.72,11.72,0,0,1,4.165-6.759,12.121,12.121,0,0,1,7.513-2.7,11.732,11.732,0,0,1,7.97,3.074l-5.879,5.879v-3.571a.634.634,0,0,0-.627-.627h-6.331a.627.627,0,0,0-.413.155l-2.55,2.236a.635.635,0,0,0-.214.472v6.225a.627.627,0,0,0,.627.627h3.99l-5.426,5.426q-.209-.232-.408-.475a11.856,11.856,0,0,1-2.676-7.486Zm16.714.571h-4.439l1.383-1.362H821.6Zm-6.2-5.515h-4.33l1.12-.982h4.377Zm-5.369,1.254h4.972v4.616l-.355.355h-4.617Zm6.226,3.362v-3.7l1.4-1.18v3.477Zm0,2.236v-.083h4.971v4.591H814.88Zm6.225,3.787V252.9l1.4-1.381v4.436Zm0,0" transform="translate(0)"/>
    <path id="Path_163" data-name="Path 163" d="M1117.324,477.164" transform="translate(-288.731 -218.938)"/>
  </g>
</svg>
