            <svg xmlns="http://www.w3.org/2000/svg" width="24.334" height="19.152" viewBox="0 0 24.334 19.152">
              <path id="Path_189" data-name="Path 189" d="M23.6,60.645H21.834a3.5,3.5,0,0,0-.348-4.54.732.732,0,0,0-1.035,0L18.558,58a6.246,6.246,0,0,0,.019-1.131.732.732,0,0,0-.659-.659,5.465,5.465,0,0,0-3.975,1.217,3.556,3.556,0,0,0-.546.71,2.994,2.994,0,0,0-2.259-1.028q-.092,0-.183.005a3,3,0,0,0-5.945,0q-.091-.005-.183-.005a3,3,0,0,0-3,3v.539H.732A.732.732,0,0,0,0,61.377a12.043,12.043,0,0,0,1.269,5.416,12.286,12.286,0,0,0,3.12,3.939v2.211a.732.732,0,0,0,.732.732H19.213a.732.732,0,0,0,.732-.732V70.732a12.285,12.285,0,0,0,3.12-3.939,12.043,12.043,0,0,0,1.269-5.416A.732.732,0,0,0,23.6,60.645Zm-2.731-2.891a2.033,2.033,0,0,1-2.683,2.683Zm-5.894.7a3.389,3.389,0,0,1,2.14-.793,3.389,3.389,0,0,1-.793,2.14,3.388,3.388,0,0,1-2.139.793A3.4,3.4,0,0,1,14.978,58.459ZM3.289,60.106a1.539,1.539,0,0,1,1.537-1.537,1.523,1.523,0,0,1,.641.14.732.732,0,0,0,1.019-.832,1.537,1.537,0,1,1,2.992,0,.732.732,0,0,0,1.019.832,1.523,1.523,0,0,1,.641-.14,1.539,1.539,0,0,1,1.537,1.537v.539H3.289ZM18.481,72.212H5.853v-1.1H18.481Zm.475-2.561H5.378a10.635,10.635,0,0,1-3.89-7.542H22.846A10.635,10.635,0,0,1,18.956,69.651Z" transform="translate(0 -54.524)"/>
            </svg>