<svg xmlns="http://www.w3.org/2000/svg" width="25.306" height="15.76" viewBox="0 0 25.306 15.76">
  <g id="Group_74" data-name="Group 74" transform="translate(-766 -243)">
    <path id="Path_117" data-name="Path 117" d="M25.273,101.966a.772.772,0,0,0-.695-.695c-.206-.02-5.083-.45-7.924,2.39a7.237,7.237,0,0,0-1.424,2.066,11.876,11.876,0,0,0-2.973-5.658,12.809,12.809,0,0,0-7.347-3.3,19.3,19.3,0,0,0-4.168-.158.772.772,0,0,0-.695.695,19.3,19.3,0,0,0,.158,4.168,12.809,12.809,0,0,0,3.3,7.347,12.809,12.809,0,0,0,7.347,3.3,20.62,20.62,0,0,0,2.9.205c.673,0,1.654-.013,2.106-.013,1.58,0,4.886-.28,7.03-2.424C25.723,107.049,25.293,102.172,25.273,101.966ZM4.6,107.732c-2.921-2.921-3.087-7.842-3.043-9.615,1.773-.046,6.686.116,9.615,3.044,2.444,2.444,2.959,6.288,3.036,8.517L8.426,103.9a.772.772,0,0,0-1.091,1.091l5.779,5.779C10.888,110.7,7.046,110.183,4.6,107.732Zm17.2,1.066a7.914,7.914,0,0,1-4.877,1.922l3.4-3.4a.772.772,0,0,0-1.091-1.091l-3.4,3.4a7.9,7.9,0,0,1,1.925-4.88c1.77-1.77,4.7-1.974,6.015-1.969C23.765,104.1,23.561,107.028,21.792,108.8Z" transform="translate(765.999 146.434)"/>
  </g>
</svg>
