<svg xmlns="http://www.w3.org/2000/svg" width="26.459" height="14.878" viewBox="0 0 26.459 14.878">
  <path id="Path_190" data-name="Path 190" d="M26.455,233.813v-.006a3.84,3.84,0,0,0-3.123-3.78l-5.576-1.039a2.327,2.327,0,0,1-1.1-.529l-5.074-4.4a1.968,1.968,0,0,0-3.057.62,2.384,2.384,0,0,1-2.067,1.374H2.307A2.28,2.28,0,0,0,0,228.349V236.1a2.408,2.408,0,0,0,2.385,2.35H22.656a3.8,3.8,0,0,0,2.711-1.147A4.367,4.367,0,0,0,26.455,233.813ZM1.549,233.8V228.34a.738.738,0,0,1,.767-.739H6.469a3.944,3.944,0,0,0,3.45-2.242.418.418,0,0,1,.65-.132l.821.712L10.3,227.048a.775.775,0,0,0,1.1,1.088l1.16-1.177.486.422-1.188,1.206a.775.775,0,0,0,1.1,1.088l1.257-1.276.486.422-1.237,1.256a.775.775,0,0,0,1.1,1.088l1.316-1.336a3.879,3.879,0,0,0,1.581.685l5.576,1.039A2.279,2.279,0,0,1,24.9,233.8H12.627l-.01-.007-4.792.007m16.431,2.421a2.255,2.255,0,0,1-1.609.679H2.384a.875.875,0,0,1-.835-.814v-.741H24.785A2.283,2.283,0,0,1,24.257,236.224Z" transform="translate(0.001 -223.575)"/>
</svg>
