<svg xmlns="http://www.w3.org/2000/svg" xmlns:xlink="http://www.w3.org/1999/xlink" width="24" height="24" viewBox="0 0 24 24">
  <defs>
    <clipPath id="clip-path">
      <rect id="Rectangle_50" data-name="Rectangle 50" width="24" height="24" fill="none"/>
    </clipPath>
  </defs>
  <g id="Group_107" data-name="Group 107" transform="translate(-795 -232)">
    <g id="Group_106" data-name="Group 106" transform="translate(795 232)">
      <g id="Group_105" data-name="Group 105" transform="translate(0 0)" clip-path="url(#clip-path)">
        <path id="Path_150" data-name="Path 150" d="M799.93,234.255l-.237,1.655a11.991,11.991,0,0,1,19.454,12.614.706.706,0,1,1-1.342-.437,10.579,10.579,0,0,0-17.074-11.2l1.593-.228a.7.7,0,0,1,.2,1.4l-3.725.524h-.1a.7.7,0,0,1-.7-.8l.53-3.708a.7.7,0,0,1,1.4.2Zm-2.684,6.33a.705.705,0,0,0-.888.451,11.994,11.994,0,0,0,19.454,12.614l-.237,1.655a.7.7,0,0,0,.6.8.6.6,0,0,0,.1,0,.705.705,0,0,0,.688-.609l.53-3.724a.7.7,0,0,0-.8-.787l-3.724.533a.712.712,0,1,0,.2,1.41l1.593-.251a10.579,10.579,0,0,1-17.066-11.2.708.708,0,0,0-.454-.888Zm10.5.671a3.524,3.524,0,1,1-3.524,3.524,3.524,3.524,0,0,1,3.524-3.524Zm0,1.41a2.115,2.115,0,1,0,2.115,2.115,2.115,2.115,0,0,0-2.115-2.115Zm0,0" transform="translate(-795.707 -232.738)"/>
      </g>
    </g>
  </g>
</svg>
