<svg xmlns="http://www.w3.org/2000/svg" width="13.367" height="25.348" viewBox="0 0 13.367 25.348">
  <path id="Path_172" data-name="Path 172" d="M133.494,8.12l-2.1-3.146V4.456a.743.743,0,0,0,.743-.743V.743A.743.743,0,0,0,131.4,0H123.97a.743.743,0,0,0-.743.743v2.97a.743.743,0,0,0,.743.743v.518l-2.1,3.146A5.182,5.182,0,0,0,121,11V23.12a2.23,2.23,0,0,0,2.228,2.228h8.911a2.23,2.23,0,0,0,2.228-2.228V11A5.182,5.182,0,0,0,133.494,8.12Zm-8.781-6.634h5.941V2.97h-5.941Zm.618,4.125a.743.743,0,0,0,.125-.412V4.456h4.456V5.2a.743.743,0,0,0,.125.412l2.222,3.333a3.7,3.7,0,0,1,.624,2.06v.407a5.989,5.989,0,0,1-2.228.472,6.072,6.072,0,0,1-2.608-.648,7.505,7.505,0,0,0-3.333-.837,7.222,7.222,0,0,0-2.22.371,3.7,3.7,0,0,1,.616-1.824Zm6.808,18.253h-8.911a.743.743,0,0,1-.743-.743V12.354a5.989,5.989,0,0,1,2.228-.472,6.073,6.073,0,0,1,2.608.648,7.505,7.505,0,0,0,3.333.837,7.225,7.225,0,0,0,2.228-.374V23.12A.743.743,0,0,1,132.139,23.863Z" transform="translate(-121)"/>
</svg>
