<svg id="Group_109" data-name="Group 109" xmlns="http://www.w3.org/2000/svg" xmlns:xlink="http://www.w3.org/1999/xlink" width="15" height="26" viewBox="0 0 15 26">
  <defs>
    <clipPath id="clip-path">
      <rect id="Rectangle_51" data-name="Rectangle 51" width="15" height="26" fill="none"/>
    </clipPath>
  </defs>
  <g id="Group_108" data-name="Group 108" transform="translate(0 0)" clip-path="url(#clip-path)">
    <path id="Path_151" data-name="Path 151" d="M848.411,229.436a.747.747,0,0,0,.915-.2l11.959-15a.747.747,0,0,0-.584-1.213h-4.773l3.947-7.939a.747.747,0,0,0-.669-1.08h-8.969a.748.748,0,0,0-.725.567l-2.99,12.009a.748.748,0,0,0,.725.928h3.528l-2.759,11.081a.748.748,0,0,0,.395.851Zm4.046-12.5a.748.748,0,0,0-.725-.928H848.2l2.618-10.514H858l-3.947,7.939a.747.747,0,0,0,.669,1.08h4.428l-8.853,11.1Zm0,0" transform="translate(-846.466 -204)"/>
  </g>
</svg>
