<svg xmlns="http://www.w3.org/2000/svg" width="24.681" height="20.246" viewBox="0 0 24.681 20.246">
  <path id="Path_106" data-name="Path 106" d="M788.1,250.087H785l-1.526-2.136,0-.007-.035-.049.118-1.02a2.676,2.676,0,0,0-2.085-2.929,3.369,3.369,0,0,1-2.606-2.744,2.64,2.64,0,0,0-4.456-1.443l-4.546,4.48,0,0h0l-1.364,1.364a1.687,1.687,0,0,0,0,2.386l9.63,9.63q.091.091.186.178h-3.8a.723.723,0,0,0,0,1.446h16a2.172,2.172,0,0,0,2.169-2.169v-2.41a4.585,4.585,0,0,0-4.579-4.579Zm-12.679-9.3a1.194,1.194,0,0,1,2.015.652,4.81,4.81,0,0,0,3.72,3.917,1.233,1.233,0,0,1,.961,1.35l-.14,1.2-1.066.355a.723.723,0,1,0,.457,1.372l1.239-.413.864,1.209-.9.3a.723.723,0,1,0,.457,1.372l1.713-.571H788.1a3.137,3.137,0,0,1,3.133,3.133v.241h-9.69L771.4,244.758Zm15.812,16.287a.724.724,0,0,1-.723.723h-8.468a4.071,4.071,0,0,1-2.9-1.2l-9.63-9.63a.242.242,0,0,1,0-.341l.852-.852,10.365,10.365a.723.723,0,0,0,.511.212h9.99Zm0,0" transform="translate(-768 -239)"/>
</svg>
