<svg xmlns="http://www.w3.org/2000/svg" xmlns:xlink="http://www.w3.org/1999/xlink" width="15" height="18" viewBox="0 0 15 18">
  <defs>
    <clipPath id="clip-path">
      <rect id="Rectangle_47" data-name="Rectangle 47" width="15" height="18" transform="translate(0)" fill="none"/>
    </clipPath>
  </defs>
  <g id="Group_92" data-name="Group 92" transform="translate(-743 -140)">
    <g id="Group_91" data-name="Group 91" transform="translate(743 140)">
      <g id="Group_90" data-name="Group 90" transform="translate(0 0)" clip-path="url(#clip-path)">
        <path id="Path_130" data-name="Path 130" d="M757.881,146.645a.7.7,0,0,0-.518-.23h-7.7a.7.7,0,0,0-.693.769l.948,9.1a1.739,1.739,0,0,0,1.734,1.563h3.728a1.739,1.739,0,0,0,1.734-1.563.7.7,0,1,0-1.387-.145.348.348,0,0,1-.347.313h-3.728a.348.348,0,0,1-.347-.313l-.578-5.544H756.3l-.25,2.4a.7.7,0,1,0,1.387.144l.621-5.961a.7.7,0,0,0-.176-.539Zm-7.3,2.559-.145-1.394h6.157l-.145,1.394Zm-1.756,7.948a.7.7,0,0,1-.7.7h-2.336A2.792,2.792,0,0,1,743,155.06v-5.21a6.778,6.778,0,0,1,1.38-4.087,5.377,5.377,0,0,0,1.095-3.242v-1.127H745.3a.7.7,0,0,1,0-1.394h5.543a.7.7,0,1,1,0,1.394h-.174v1.2a5.346,5.346,0,0,0,.233,1.561.7.7,0,1,1-1.334.407,6.734,6.734,0,0,1-.294-1.968v-1.2H746.87v1.127a6.779,6.779,0,0,1-1.38,4.087,5.376,5.376,0,0,0-1.095,3.242v5.21a1.4,1.4,0,0,0,1.394,1.394h2.336a.7.7,0,0,1,.7.7Zm0,0" transform="translate(-743 -140)"/>
      </g>
    </g>
  </g>
</svg>
